<mxfile host="app.diagrams.net" modified="2021-12-11T08:48:23.200Z" agent="5.0 (Windows NT 10.0; Win64; x64) AppleWebKit/537.36 (KHTML, like Gecko) Chrome/96.0.4664.93 Safari/537.36" etag="tdv8qlbgFDd7tMTaymlA" version="15.9.4" type="github">
  <diagram id="ULL7t0YmZiTbyxcz3Xg2" name="Page-1">
    <mxGraphModel dx="1504" dy="684" grid="1" gridSize="10" guides="1" tooltips="1" connect="1" arrows="1" fold="1" page="1" pageScale="1" pageWidth="827" pageHeight="1169" math="0" shadow="0">
      <root>
        <mxCell id="0" />
        <mxCell id="1" parent="0" />
        <mxCell id="dkBsn-2bX1nEJ2BIgXO3-62" value="&lt;b&gt;GiaoVu&lt;/b&gt;" style="text;html=1;align=center;verticalAlign=middle;resizable=0;points=[];autosize=1;strokeColor=none;fillColor=none;" vertex="1" parent="1">
          <mxGeometry x="50" y="230" width="60" height="20" as="geometry" />
        </mxCell>
        <mxCell id="dkBsn-2bX1nEJ2BIgXO3-63" value="" style="shape=umlLifeline;participant=umlActor;perimeter=lifelinePerimeter;whiteSpace=wrap;html=1;container=1;collapsible=0;recursiveResize=0;verticalAlign=top;spacingTop=36;outlineConnect=0;" vertex="1" parent="1">
          <mxGeometry x="70" y="250" width="20" height="680" as="geometry" />
        </mxCell>
        <mxCell id="dkBsn-2bX1nEJ2BIgXO3-64" value="" style="html=1;points=[];perimeter=orthogonalPerimeter;" vertex="1" parent="dkBsn-2bX1nEJ2BIgXO3-63">
          <mxGeometry x="5" y="60" width="10" height="560" as="geometry" />
        </mxCell>
        <mxCell id="dkBsn-2bX1nEJ2BIgXO3-65" value=":QLSV&lt;br&gt;Controler" style="shape=umlLifeline;perimeter=lifelinePerimeter;whiteSpace=wrap;html=1;container=1;collapsible=0;recursiveResize=0;outlineConnect=0;" vertex="1" parent="1">
          <mxGeometry x="220" y="249" width="108.5" height="690" as="geometry" />
        </mxCell>
        <mxCell id="dkBsn-2bX1nEJ2BIgXO3-66" value="" style="html=1;points=[];perimeter=orthogonalPerimeter;" vertex="1" parent="dkBsn-2bX1nEJ2BIgXO3-65">
          <mxGeometry x="49.25" y="60" width="10" height="550" as="geometry" />
        </mxCell>
        <mxCell id="dkBsn-2bX1nEJ2BIgXO3-67" value="" style="html=1;verticalAlign=bottom;labelBackgroundColor=none;endArrow=block;endFill=1;dashed=1;rounded=0;" edge="1" parent="dkBsn-2bX1nEJ2BIgXO3-65">
          <mxGeometry width="160" relative="1" as="geometry">
            <mxPoint x="215" y="579.4099999999999" as="sourcePoint" />
            <mxPoint x="65" y="579.4099999999999" as="targetPoint" />
          </mxGeometry>
        </mxCell>
        <mxCell id="dkBsn-2bX1nEJ2BIgXO3-68" value="return status" style="text;html=1;align=center;verticalAlign=middle;resizable=0;points=[];autosize=1;strokeColor=none;fillColor=none;" vertex="1" parent="dkBsn-2bX1nEJ2BIgXO3-65">
          <mxGeometry x="100" y="560" width="80" height="20" as="geometry" />
        </mxCell>
        <mxCell id="dkBsn-2bX1nEJ2BIgXO3-69" value="" style="html=1;verticalAlign=bottom;labelBackgroundColor=none;endArrow=block;endFill=1;dashed=1;rounded=0;" edge="1" parent="dkBsn-2bX1nEJ2BIgXO3-65">
          <mxGeometry width="160" relative="1" as="geometry">
            <mxPoint x="390" y="569" as="sourcePoint" />
            <mxPoint x="250" y="569.4099999999999" as="targetPoint" />
          </mxGeometry>
        </mxCell>
        <mxCell id="dkBsn-2bX1nEJ2BIgXO3-70" value="return status" style="text;html=1;align=center;verticalAlign=middle;resizable=0;points=[];autosize=1;strokeColor=none;fillColor=none;" vertex="1" parent="dkBsn-2bX1nEJ2BIgXO3-65">
          <mxGeometry x="285" y="550" width="80" height="20" as="geometry" />
        </mxCell>
        <mxCell id="dkBsn-2bX1nEJ2BIgXO3-71" value=":QLSV&lt;br&gt;BusinesssLogic" style="shape=umlLifeline;perimeter=lifelinePerimeter;whiteSpace=wrap;html=1;container=1;collapsible=0;recursiveResize=0;outlineConnect=0;" vertex="1" parent="1">
          <mxGeometry x="400" y="250" width="100" height="680" as="geometry" />
        </mxCell>
        <mxCell id="dkBsn-2bX1nEJ2BIgXO3-72" value="" style="html=1;points=[];perimeter=orthogonalPerimeter;" vertex="1" parent="dkBsn-2bX1nEJ2BIgXO3-71">
          <mxGeometry x="45" y="60" width="10" height="80" as="geometry" />
        </mxCell>
        <mxCell id="dkBsn-2bX1nEJ2BIgXO3-73" value="" style="html=1;verticalAlign=bottom;labelBackgroundColor=none;endArrow=block;endFill=1;dashed=1;rounded=0;" edge="1" parent="dkBsn-2bX1nEJ2BIgXO3-71">
          <mxGeometry width="160" relative="1" as="geometry">
            <mxPoint x="30" y="130" as="sourcePoint" />
            <mxPoint x="-110" y="130" as="targetPoint" />
          </mxGeometry>
        </mxCell>
        <mxCell id="dkBsn-2bX1nEJ2BIgXO3-74" value="" style="html=1;points=[];perimeter=orthogonalPerimeter;" vertex="1" parent="dkBsn-2bX1nEJ2BIgXO3-71">
          <mxGeometry x="45" y="160" width="10" height="100" as="geometry" />
        </mxCell>
        <mxCell id="dkBsn-2bX1nEJ2BIgXO3-75" value="" style="html=1;points=[];perimeter=orthogonalPerimeter;" vertex="1" parent="dkBsn-2bX1nEJ2BIgXO3-71">
          <mxGeometry x="45" y="490" width="10" height="100" as="geometry" />
        </mxCell>
        <mxCell id="dkBsn-2bX1nEJ2BIgXO3-76" value="" style="endArrow=classic;html=1;rounded=0;" edge="1" parent="dkBsn-2bX1nEJ2BIgXO3-71">
          <mxGeometry width="50" height="50" relative="1" as="geometry">
            <mxPoint x="-115.00000000000023" y="170" as="sourcePoint" />
            <mxPoint x="34.99999999999977" y="170" as="targetPoint" />
          </mxGeometry>
        </mxCell>
        <mxCell id="dkBsn-2bX1nEJ2BIgXO3-77" value="btnThem()" style="text;html=1;align=center;verticalAlign=middle;resizable=0;points=[];autosize=1;strokeColor=none;fillColor=none;" vertex="1" parent="dkBsn-2bX1nEJ2BIgXO3-71">
          <mxGeometry x="-75" y="150" width="70" height="20" as="geometry" />
        </mxCell>
        <mxCell id="dkBsn-2bX1nEJ2BIgXO3-78" value="" style="html=1;verticalAlign=bottom;labelBackgroundColor=none;endArrow=block;endFill=1;dashed=1;rounded=0;" edge="1" parent="dkBsn-2bX1nEJ2BIgXO3-71">
          <mxGeometry width="160" relative="1" as="geometry">
            <mxPoint x="35" y="249.40999999999974" as="sourcePoint" />
            <mxPoint x="-115" y="249.40999999999974" as="targetPoint" />
          </mxGeometry>
        </mxCell>
        <mxCell id="dkBsn-2bX1nEJ2BIgXO3-79" value="return status" style="text;html=1;align=center;verticalAlign=middle;resizable=0;points=[];autosize=1;strokeColor=none;fillColor=none;" vertex="1" parent="dkBsn-2bX1nEJ2BIgXO3-71">
          <mxGeometry x="-80" y="230.00000000000006" width="80" height="20" as="geometry" />
        </mxCell>
        <mxCell id="dkBsn-2bX1nEJ2BIgXO3-80" value="" style="html=1;points=[];perimeter=orthogonalPerimeter;" vertex="1" parent="dkBsn-2bX1nEJ2BIgXO3-71">
          <mxGeometry x="45" y="284.5" width="10" height="55.5" as="geometry" />
        </mxCell>
        <mxCell id="dkBsn-2bX1nEJ2BIgXO3-81" value="" style="endArrow=classic;html=1;rounded=0;" edge="1" parent="dkBsn-2bX1nEJ2BIgXO3-71">
          <mxGeometry width="50" height="50" relative="1" as="geometry">
            <mxPoint x="-115.00000000000023" y="300" as="sourcePoint" />
            <mxPoint x="35" y="300" as="targetPoint" />
          </mxGeometry>
        </mxCell>
        <mxCell id="dkBsn-2bX1nEJ2BIgXO3-82" value="" style="html=1;points=[];perimeter=orthogonalPerimeter;" vertex="1" parent="dkBsn-2bX1nEJ2BIgXO3-71">
          <mxGeometry x="45" y="360" width="10" height="100" as="geometry" />
        </mxCell>
        <mxCell id="dkBsn-2bX1nEJ2BIgXO3-83" value="" style="endArrow=classic;html=1;rounded=0;" edge="1" parent="dkBsn-2bX1nEJ2BIgXO3-71">
          <mxGeometry width="50" height="50" relative="1" as="geometry">
            <mxPoint x="-115.00000000000023" y="370" as="sourcePoint" />
            <mxPoint x="34.99999999999977" y="370" as="targetPoint" />
          </mxGeometry>
        </mxCell>
        <mxCell id="dkBsn-2bX1nEJ2BIgXO3-84" value="btnCapNhat()" style="text;html=1;align=center;verticalAlign=middle;resizable=0;points=[];autosize=1;strokeColor=none;fillColor=none;" vertex="1" parent="dkBsn-2bX1nEJ2BIgXO3-71">
          <mxGeometry x="-85" y="350" width="90" height="20" as="geometry" />
        </mxCell>
        <mxCell id="dkBsn-2bX1nEJ2BIgXO3-85" value=":QLSV&lt;br&gt;DataAccess" style="shape=umlLifeline;perimeter=lifelinePerimeter;whiteSpace=wrap;html=1;container=1;collapsible=0;recursiveResize=0;outlineConnect=0;" vertex="1" parent="1">
          <mxGeometry x="570" y="250" width="100" height="680" as="geometry" />
        </mxCell>
        <mxCell id="dkBsn-2bX1nEJ2BIgXO3-86" value="" style="html=1;points=[];perimeter=orthogonalPerimeter;" vertex="1" parent="dkBsn-2bX1nEJ2BIgXO3-85">
          <mxGeometry x="45" y="200" width="10" height="40" as="geometry" />
        </mxCell>
        <mxCell id="dkBsn-2bX1nEJ2BIgXO3-87" value="InsertUpdateDelete(sv,0)" style="edgeStyle=orthogonalEdgeStyle;html=1;align=left;spacingLeft=2;endArrow=block;rounded=0;entryX=1;entryY=0;" edge="1" parent="dkBsn-2bX1nEJ2BIgXO3-85" target="dkBsn-2bX1nEJ2BIgXO3-86">
          <mxGeometry relative="1" as="geometry">
            <mxPoint x="55" y="180" as="sourcePoint" />
            <Array as="points">
              <mxPoint x="85" y="180" />
            </Array>
          </mxGeometry>
        </mxCell>
        <mxCell id="dkBsn-2bX1nEJ2BIgXO3-88" value="" style="html=1;points=[];perimeter=orthogonalPerimeter;" vertex="1" parent="dkBsn-2bX1nEJ2BIgXO3-85">
          <mxGeometry x="45" y="400" width="10" height="40" as="geometry" />
        </mxCell>
        <mxCell id="dkBsn-2bX1nEJ2BIgXO3-89" value="InsertUpdateDelete(sv,1)" style="edgeStyle=orthogonalEdgeStyle;html=1;align=left;spacingLeft=2;endArrow=block;rounded=0;entryX=1;entryY=0;" edge="1" parent="dkBsn-2bX1nEJ2BIgXO3-85" target="dkBsn-2bX1nEJ2BIgXO3-88">
          <mxGeometry relative="1" as="geometry">
            <mxPoint x="55" y="380" as="sourcePoint" />
            <Array as="points">
              <mxPoint x="85" y="380" />
            </Array>
          </mxGeometry>
        </mxCell>
        <mxCell id="dkBsn-2bX1nEJ2BIgXO3-90" value="" style="html=1;points=[];perimeter=orthogonalPerimeter;" vertex="1" parent="dkBsn-2bX1nEJ2BIgXO3-85">
          <mxGeometry x="45" y="530" width="10" height="40" as="geometry" />
        </mxCell>
        <mxCell id="dkBsn-2bX1nEJ2BIgXO3-91" value="InsertUpdateDelete(sv,2)" style="edgeStyle=orthogonalEdgeStyle;html=1;align=left;spacingLeft=2;endArrow=block;rounded=0;entryX=1;entryY=0;" edge="1" parent="dkBsn-2bX1nEJ2BIgXO3-85" target="dkBsn-2bX1nEJ2BIgXO3-90">
          <mxGeometry relative="1" as="geometry">
            <mxPoint x="55" y="510" as="sourcePoint" />
            <Array as="points">
              <mxPoint x="85" y="510" />
            </Array>
          </mxGeometry>
        </mxCell>
        <mxCell id="dkBsn-2bX1nEJ2BIgXO3-92" value="" style="endArrow=classic;html=1;rounded=0;" edge="1" parent="dkBsn-2bX1nEJ2BIgXO3-85">
          <mxGeometry width="50" height="50" relative="1" as="geometry">
            <mxPoint x="-110.00000000000023" y="180" as="sourcePoint" />
            <mxPoint x="39.99999999999977" y="180" as="targetPoint" />
          </mxGeometry>
        </mxCell>
        <mxCell id="dkBsn-2bX1nEJ2BIgXO3-93" value="Insert(sv)" style="text;html=1;align=center;verticalAlign=middle;resizable=0;points=[];autosize=1;strokeColor=none;fillColor=none;" vertex="1" parent="dkBsn-2bX1nEJ2BIgXO3-85">
          <mxGeometry x="-65" y="160" width="70" height="20" as="geometry" />
        </mxCell>
        <mxCell id="dkBsn-2bX1nEJ2BIgXO3-94" value="" style="html=1;verticalAlign=bottom;labelBackgroundColor=none;endArrow=block;endFill=1;dashed=1;rounded=0;" edge="1" parent="dkBsn-2bX1nEJ2BIgXO3-85">
          <mxGeometry width="160" relative="1" as="geometry">
            <mxPoint x="40" y="239" as="sourcePoint" />
            <mxPoint x="-100" y="239.40999999999974" as="targetPoint" />
          </mxGeometry>
        </mxCell>
        <mxCell id="dkBsn-2bX1nEJ2BIgXO3-95" value="return status" style="text;html=1;align=center;verticalAlign=middle;resizable=0;points=[];autosize=1;strokeColor=none;fillColor=none;" vertex="1" parent="dkBsn-2bX1nEJ2BIgXO3-85">
          <mxGeometry x="-65" y="220.00000000000006" width="80" height="20" as="geometry" />
        </mxCell>
        <mxCell id="dkBsn-2bX1nEJ2BIgXO3-96" value="" style="endArrow=classic;html=1;rounded=0;" edge="1" parent="dkBsn-2bX1nEJ2BIgXO3-85">
          <mxGeometry width="50" height="50" relative="1" as="geometry">
            <mxPoint x="-105.00000000000023" y="380" as="sourcePoint" />
            <mxPoint x="45" y="380" as="targetPoint" />
          </mxGeometry>
        </mxCell>
        <mxCell id="dkBsn-2bX1nEJ2BIgXO3-97" value="" style="endArrow=classic;html=1;rounded=0;" edge="1" parent="dkBsn-2bX1nEJ2BIgXO3-85">
          <mxGeometry width="50" height="50" relative="1" as="geometry">
            <mxPoint x="-105.00000000000023" y="509.9999999999998" as="sourcePoint" />
            <mxPoint x="45" y="509.9999999999998" as="targetPoint" />
          </mxGeometry>
        </mxCell>
        <mxCell id="dkBsn-2bX1nEJ2BIgXO3-98" value="btnDeleteClick()" style="text;html=1;align=center;verticalAlign=middle;resizable=0;points=[];autosize=1;strokeColor=none;fillColor=none;" vertex="1" parent="dkBsn-2bX1nEJ2BIgXO3-85">
          <mxGeometry x="-255" y="480" width="100" height="20" as="geometry" />
        </mxCell>
        <mxCell id="dkBsn-2bX1nEJ2BIgXO3-99" value="Delete(sv)" style="text;html=1;align=center;verticalAlign=middle;resizable=0;points=[];autosize=1;strokeColor=none;fillColor=none;" vertex="1" parent="dkBsn-2bX1nEJ2BIgXO3-85">
          <mxGeometry x="-60" y="490" width="70" height="20" as="geometry" />
        </mxCell>
        <mxCell id="dkBsn-2bX1nEJ2BIgXO3-100" value="" style="endArrow=classic;html=1;rounded=0;" edge="1" parent="1">
          <mxGeometry width="50" height="50" relative="1" as="geometry">
            <mxPoint x="99.99999999999977" y="330" as="sourcePoint" />
            <mxPoint x="259.9999999999998" y="330" as="targetPoint" />
          </mxGeometry>
        </mxCell>
        <mxCell id="dkBsn-2bX1nEJ2BIgXO3-101" value="" style="endArrow=classic;html=1;rounded=0;" edge="1" parent="1">
          <mxGeometry width="50" height="50" relative="1" as="geometry">
            <mxPoint x="289.9999999999998" y="350" as="sourcePoint" />
            <mxPoint x="430" y="350" as="targetPoint" />
          </mxGeometry>
        </mxCell>
        <mxCell id="dkBsn-2bX1nEJ2BIgXO3-102" value="btnQLSVClick()" style="text;html=1;align=center;verticalAlign=middle;resizable=0;points=[];autosize=1;strokeColor=none;fillColor=none;" vertex="1" parent="1">
          <mxGeometry x="130" y="310" width="100" height="20" as="geometry" />
        </mxCell>
        <mxCell id="dkBsn-2bX1nEJ2BIgXO3-103" value="btnAddClick()" style="text;html=1;align=center;verticalAlign=middle;resizable=0;points=[];autosize=1;strokeColor=none;fillColor=none;" vertex="1" parent="1">
          <mxGeometry x="315" y="330" width="90" height="20" as="geometry" />
        </mxCell>
        <mxCell id="dkBsn-2bX1nEJ2BIgXO3-104" value="SinhVienInfoShow()" style="text;html=1;align=center;verticalAlign=middle;resizable=0;points=[];autosize=1;strokeColor=none;fillColor=none;" vertex="1" parent="1">
          <mxGeometry x="300" y="360" width="120" height="20" as="geometry" />
        </mxCell>
        <mxCell id="dkBsn-2bX1nEJ2BIgXO3-105" value="Thêm sinh viên thành công" style="text;html=1;align=center;verticalAlign=middle;resizable=0;points=[];autosize=1;strokeColor=none;fillColor=none;" vertex="1" parent="1">
          <mxGeometry x="100" y="490" width="160" height="20" as="geometry" />
        </mxCell>
        <mxCell id="dkBsn-2bX1nEJ2BIgXO3-106" value="&amp;nbsp;" style="text;html=1;align=center;verticalAlign=middle;resizable=0;points=[];autosize=1;strokeColor=none;fillColor=none;" vertex="1" parent="1">
          <mxGeometry x="160" y="765" width="20" height="20" as="geometry" />
        </mxCell>
        <mxCell id="dkBsn-2bX1nEJ2BIgXO3-107" value="Extend with U4" style="shape=note2;boundedLbl=1;whiteSpace=wrap;html=1;size=25;verticalAlign=top;align=center;" vertex="1" parent="1">
          <mxGeometry x="120.00000000000001" y="870" width="120" height="60" as="geometry" />
        </mxCell>
        <mxCell id="dkBsn-2bX1nEJ2BIgXO3-108" value="" style="endArrow=none;dashed=1;html=1;dashPattern=1 3;strokeWidth=2;rounded=0;entryX=1.376;entryY=0.981;entryDx=0;entryDy=0;entryPerimeter=0;" edge="1" parent="1" source="dkBsn-2bX1nEJ2BIgXO3-107">
          <mxGeometry width="50" height="50" relative="1" as="geometry">
            <mxPoint x="49.28932188134526" y="950" as="sourcePoint" />
            <mxPoint x="88.75999999999999" y="856.77" as="targetPoint" />
          </mxGeometry>
        </mxCell>
        <mxCell id="dkBsn-2bX1nEJ2BIgXO3-109" value="&amp;nbsp;lvSVDoubleClick()" style="text;html=1;align=center;verticalAlign=middle;resizable=0;points=[];autosize=1;strokeColor=none;fillColor=none;" vertex="1" parent="1">
          <mxGeometry x="294" y="530" width="120" height="20" as="geometry" />
        </mxCell>
        <mxCell id="dkBsn-2bX1nEJ2BIgXO3-110" value="" style="html=1;verticalAlign=bottom;labelBackgroundColor=none;endArrow=block;endFill=1;dashed=1;rounded=0;" edge="1" parent="1">
          <mxGeometry width="160" relative="1" as="geometry">
            <mxPoint x="249.99999999999977" y="709.9999999999998" as="sourcePoint" />
            <mxPoint x="89.99999999999977" y="709.9999999999998" as="targetPoint" />
          </mxGeometry>
        </mxCell>
        <mxCell id="dkBsn-2bX1nEJ2BIgXO3-111" value="" style="html=1;verticalAlign=bottom;labelBackgroundColor=none;endArrow=block;endFill=1;dashed=1;rounded=0;" edge="1" parent="1">
          <mxGeometry width="160" relative="1" as="geometry">
            <mxPoint x="435" y="699.4099999999999" as="sourcePoint" />
            <mxPoint x="284.9999999999998" y="699.4099999999999" as="targetPoint" />
          </mxGeometry>
        </mxCell>
        <mxCell id="dkBsn-2bX1nEJ2BIgXO3-112" value="return status" style="text;html=1;align=center;verticalAlign=middle;resizable=0;points=[];autosize=1;strokeColor=none;fillColor=none;" vertex="1" parent="1">
          <mxGeometry x="320" y="680" width="80" height="20" as="geometry" />
        </mxCell>
        <mxCell id="dkBsn-2bX1nEJ2BIgXO3-113" value="" style="html=1;verticalAlign=bottom;labelBackgroundColor=none;endArrow=block;endFill=1;dashed=1;rounded=0;" edge="1" parent="1">
          <mxGeometry width="160" relative="1" as="geometry">
            <mxPoint x="610" y="689" as="sourcePoint" />
            <mxPoint x="470" y="689.4099999999999" as="targetPoint" />
          </mxGeometry>
        </mxCell>
        <mxCell id="dkBsn-2bX1nEJ2BIgXO3-114" value="return status" style="text;html=1;align=center;verticalAlign=middle;resizable=0;points=[];autosize=1;strokeColor=none;fillColor=none;" vertex="1" parent="1">
          <mxGeometry x="505" y="670" width="80" height="20" as="geometry" />
        </mxCell>
        <mxCell id="dkBsn-2bX1nEJ2BIgXO3-115" value="Cập nhật sinh viên thành công" style="text;html=1;align=center;verticalAlign=middle;resizable=0;points=[];autosize=1;strokeColor=none;fillColor=none;" vertex="1" parent="1">
          <mxGeometry x="90" y="690" width="180" height="20" as="geometry" />
        </mxCell>
        <mxCell id="dkBsn-2bX1nEJ2BIgXO3-116" value="Xóa sinh viên thành công" style="text;html=1;align=center;verticalAlign=middle;resizable=0;points=[];autosize=1;strokeColor=none;fillColor=none;" vertex="1" parent="1">
          <mxGeometry x="105" y="820" width="150" height="20" as="geometry" />
        </mxCell>
        <mxCell id="dkBsn-2bX1nEJ2BIgXO3-117" value="" style="html=1;verticalAlign=bottom;labelBackgroundColor=none;endArrow=block;endFill=1;dashed=1;rounded=0;" edge="1" parent="1">
          <mxGeometry width="160" relative="1" as="geometry">
            <mxPoint x="249.99999999999977" y="509.9999999999998" as="sourcePoint" />
            <mxPoint x="89.99999999999977" y="510" as="targetPoint" />
          </mxGeometry>
        </mxCell>
        <mxCell id="dkBsn-2bX1nEJ2BIgXO3-118" value="" style="html=1;verticalAlign=bottom;labelBackgroundColor=none;endArrow=block;endFill=1;dashed=1;rounded=0;" edge="1" parent="1">
          <mxGeometry width="160" relative="1" as="geometry">
            <mxPoint x="249.99999999999977" y="839.9999999999998" as="sourcePoint" />
            <mxPoint x="89.99999999999977" y="839.9999999999998" as="targetPoint" />
          </mxGeometry>
        </mxCell>
        <mxCell id="dkBsn-2bX1nEJ2BIgXO3-119" value="" style="endArrow=classic;html=1;rounded=0;" edge="1" parent="1">
          <mxGeometry width="50" height="50" relative="1" as="geometry">
            <mxPoint x="289.9999999999998" y="749.9999999999998" as="sourcePoint" />
            <mxPoint x="430" y="749.9999999999998" as="targetPoint" />
          </mxGeometry>
        </mxCell>
        <mxCell id="dkBsn-2bX1nEJ2BIgXO3-120" value="Update(sv)" style="text;html=1;align=center;verticalAlign=middle;resizable=0;points=[];autosize=1;strokeColor=none;fillColor=none;" vertex="1" parent="1">
          <mxGeometry x="510" y="610" width="70" height="20" as="geometry" />
        </mxCell>
        <mxCell id="dkBsn-2bX1nEJ2BIgXO3-121" value="" style="html=1;verticalAlign=bottom;labelBackgroundColor=none;endArrow=block;endFill=1;dashed=1;rounded=0;" edge="1" parent="1">
          <mxGeometry width="160" relative="1" as="geometry">
            <mxPoint x="434" y="579.9999999999998" as="sourcePoint" />
            <mxPoint x="284" y="579.9999999999998" as="targetPoint" />
          </mxGeometry>
        </mxCell>
        <mxCell id="dkBsn-2bX1nEJ2BIgXO3-122" value="SinhVienInfoShow()" style="text;html=1;align=center;verticalAlign=middle;resizable=0;points=[];autosize=1;strokeColor=none;fillColor=none;" vertex="1" parent="1">
          <mxGeometry x="304" y="560" width="120" height="20" as="geometry" />
        </mxCell>
      </root>
    </mxGraphModel>
  </diagram>
</mxfile>
